<svg xmlns="http://www.w3.org/2000/svg" xmlns:xlink="http://www.w3.org/1999/xlink" width="65" height="65" viewBox="0 0 65 65"><defs><path id="bmvoa" d="M281.56 1958a32.5 32.5 0 1 1 0 65 32.5 32.5 0 0 1-.05-65h.05zm-21.64 12.03h7.38a46.57 46.57 0 0 1 4.39-7.61 29.41 29.41 0 0 0-11.78 7.61zm-2.33 2.76a29.62 29.62 0 0 0-5.79 16.33h11.05a48.68 48.68 0 0 1 3.27-16.33zm8.59 35.42a48.5 48.5 0 0 1-3.33-16.33H251.8a29.62 29.62 0 0 0 5.79 16.33zm-6.26 2.76a29.6 29.6 0 0 0 11.83 7.63 49.94 49.94 0 0 1-4.4-7.63zm20.2 9.24v-9.23h-9.7a46.61 46.61 0 0 0 5.62 8.76c1.35.25 2.71.4 4.08.47zm0-28.33h-14.5a46.07 46.07 0 0 0 3.53 16.33h10.97zm0-2.76v-16.33h-11a46.28 46.28 0 0 0-3.5 16.33zm.01-28.32c-1.37.07-2.74.22-4.09.47a45.34 45.34 0 0 0-5.65 8.76h9.74zm16.7 11.99a48.97 48.97 0 0 1 3.33 16.33h11.04a29.47 29.47 0 0 0-5.78-16.33zm6.27-2.76a29.56 29.56 0 0 0-11.85-7.63 48.38 48.38 0 0 1 4.4 7.63zm-20.21-9.23v9.23h9.7a47.06 47.06 0 0 0-5.63-8.76 32.8 32.8 0 0 0-4.07-.47zm0 28.32h14.5a46.2 46.2 0 0 0-3.54-16.33h-10.96zm0 2.76v16.33h10.99a46.49 46.49 0 0 0 3.51-16.33zm-.02 28.32c1.37-.07 2.74-.22 4.1-.47a45.38 45.38 0 0 0 5.65-8.76h-9.75zm8.38-1.6a29.61 29.61 0 0 0 11.86-7.63h-7.48a49.23 49.23 0 0 1-4.38 7.63zm14.18-10.39a29.68 29.68 0 0 0 5.79-16.33h-11.08a51.12 51.12 0 0 1-3.34 16.33z"/></defs><g><g transform="translate(-249 -1958)"><use fill="#6fa3d4" xlink:href="#bmvoa"/></g></g></svg>