<svg xmlns="http://www.w3.org/2000/svg" xmlns:xlink="http://www.w3.org/1999/xlink" width="16" height="16" viewBox="0 0 16 16"><defs><path id="yjz5a" d="M1184 61a8 8 0 0 1-16 0 8 8 0 0 1 16 0zm-1.05 0a6.96 6.96 0 0 0-13.89 0 6.95 6.95 0 0 0 13.89 0zm-6.42-.47a2.57 2.57 0 0 1 0 5.02v.84a.53.53 0 0 1-1.06 0v-.84a2.57 2.57 0 0 1-1.61-1.1.52.52 0 0 1 .15-.73c.24-.16.57-.1.73.15.18.28.44.48.73.59v-2.99a2.57 2.57 0 0 1 0-5.03v-.83a.53.53 0 0 1 1.06 0v.84c.65.13 1.24.52 1.61 1.1.16.24.1.57-.15.73a.52.52 0 0 1-.72-.15 1.6 1.6 0 0 0-.74-.6zm-1.06-.15v-2.84c-.57.21-.99.77-.99 1.42 0 .65.42 1.2.99 1.42zm2.05 2.66c0-.65-.42-1.2-.99-1.42v2.84c.57-.22.99-.77.99-1.42z"/></defs><g><g transform="translate(-1168 -53)"><use fill="#acacac" xlink:href="#yjz5a"/></g></g></svg>