<svg xmlns="http://www.w3.org/2000/svg" xmlns:xlink="http://www.w3.org/1999/xlink" width="27" height="24" viewBox="0 0 27 24"><defs><path id="x791a" d="M1152 853.44v6.75c0 2.65-2.25 4.8-5.02 4.8h-16.97a4.92 4.92 0 0 1-5.01-4.8v-6.86c0-.4.34-.74.77-.74s.78.33.78.74v6.86a3.4 3.4 0 0 0 3.46 3.33h16.97a3.4 3.4 0 0 0 3.47-3.33v-6.75c0-.4.34-.74.77-.74s.78.34.78.74zm-18.97.95a.72.72 0 0 1 0-1.05.8.8 0 0 1 1.1 0l3.59 3.46v-15.05c0-.42.35-.75.78-.75.43 0 .77.33.77.75v15.05l3.59-3.45a.8.8 0 0 1 1.1 0c.3.29.3.75 0 1.05l-4.92 4.7a.77.77 0 0 1-.54.23.8.8 0 0 1-.55-.22z"/></defs><g><g opacity=".7" transform="translate(-1125 -841)"><use fill="#6fa3d4" xlink:href="#x791a"/></g></g></svg>