<svg xmlns="http://www.w3.org/2000/svg" xmlns:xlink="http://www.w3.org/1999/xlink" width="16" height="16" viewBox="0 0 16 16"><defs><path id="k7r7a" d="M1190.66 12.34A7.96 7.96 0 0 1 1193 18a7.96 7.96 0 0 1-8 8 7.96 7.96 0 0 1-7.99-8 7.96 7.96 0 0 1 7.99-8c2.14 0 4.15.82 5.66 2.34zm-.71 10.61a6.92 6.92 0 0 0 1.91-3.55c-.21.31-.41.43-.53-.27-.13-1.13-1.17-.4-1.82-.8-.69.46-2.24-.91-1.97.63.4.7 2.18-.93 1.3.54-.57 1.03-2.08 3.3-1.88 4.48.02 1.71-1.75.36-2.36-.21-.42-1.14-.14-3.14-1.22-3.7-1.17-.05-2.17-.15-2.63-1.46-.27-.94.29-2.33 1.3-2.54 1.46-.93 1.99 1.08 3.36 1.11.43-.44 1.59-.59 1.69-1.09-.9-.16 1.14-.76-.09-1.1-.68.08-1.12.7-.75 1.24-1.32.3-1.36-1.91-2.63-1.21-.03 1.1-2.06.36-.7.13.47-.2-.76-.8-.1-.69.33-.02 1.43-.4 1.13-.66.61-.38 1.13.91 1.73-.03.43-.73-.18-.86-.73-.5-.3-.33.54-1.08 1.29-1.4.25-.1.48-.16.67-.14.37.43 1.07.5 1.1-.06a6.94 6.94 0 0 0-7.19.7c.32.15.5.34.19.57-.24.72-1.22 1.69-2.08 1.55a6.94 6.94 0 0 0-.86 2.51c.72.24.88.71.73.87-.37.32-.59.78-.71 1.27a6.92 6.92 0 0 0 1.96 3.81 6.95 6.95 0 0 0 9.89 0z"/></defs><g><g transform="translate(-1177 -10)"><use fill="#acacac" xlink:href="#k7r7a"/></g></g></svg>