<svg xmlns="http://www.w3.org/2000/svg" xmlns:xlink="http://www.w3.org/1999/xlink" width="13" height="14" viewBox="0 0 13 14"><defs><path id="9l1ea" d="M1133.78 23.8a.7.7 0 0 1-1-.03l-3.23-3.49a5.25 5.25 0 0 1-3.12 1.02 5.55 5.55 0 0 1-5.43-5.65 5.55 5.55 0 0 1 5.43-5.65c3 0 5.44 2.54 5.44 5.65 0 1.34-.45 2.62-1.28 3.63l3.21 3.47c.27.3.26.76-.02 1.04zm-11.36-8.15a4.1 4.1 0 0 0 4.01 4.18 4.1 4.1 0 0 0 4.02-4.18 4.1 4.1 0 0 0-4.02-4.18 4.1 4.1 0 0 0-4.01 4.18z"/></defs><g><g transform="translate(-1121 -10)"><use fill="#9d9d9d" xlink:href="#9l1ea"/></g></g></svg>