<svg xmlns="http://www.w3.org/2000/svg" xmlns:xlink="http://www.w3.org/1999/xlink" width="17" height="19" viewBox="0 0 17 19"><defs><path id="5yiia" d="M816.18 3253.53c0 1.18 0 2.44-.27 3.59-.2.81-.87 1.4-1.68 1.49-1.93.21-3.88.21-5.82.21-1.94 0-3.9 0-5.82-.21a1.94 1.94 0 0 1-1.68-1.49c-.27-1.15-.27-2.41-.27-3.59 0-1.19 0-2.45.27-3.6.2-.81.87-1.4 1.68-1.49 1.93-.21 3.88-.21 5.82-.21 1.94 0 3.9 0 5.82.21.81.09 1.49.68 1.68 1.49.27 1.15.27 2.41.27 3.6zm-11.1-3.66h-3.28v.95h1.1v5.85h1.05v-5.85h1.12zm2.83 6.8v-5.07h-.94v3.87c-.21.29-.4.43-.6.43-.12 0-.2-.07-.22-.21v-4.09h-.94v4.01c0 .36.03.6.08.75.1.26.3.38.6.38.35 0 .7-.2 1.08-.62v.55zm3.57-3.54c0-.48-.04-.82-.1-1.02-.12-.38-.38-.57-.75-.57-.34 0-.67.18-.97.55v-2.22h-.94v6.8h.94v-.49c.31.38.64.56.97.56.37 0 .63-.19.75-.57.06-.22.1-.55.1-1.02zm3.54 1.17v-1.05c0-.54-.1-.93-.29-1.19a1.3 1.3 0 0 0-1.1-.52c-.49 0-.86.17-1.13.52-.2.26-.3.65-.3 1.19v1.78c0 .54.11.94.3 1.19.28.35.65.52 1.15.52a1.3 1.3 0 0 0 1.35-1.1l.02-.59v-.14h-.96c0 .37 0 .58-.02.63-.05.24-.19.36-.42.36-.32 0-.48-.23-.48-.7v-.9zm-.94-1.23v.47h-.94v-.47c0-.47.16-.7.47-.7.32 0 .47.23.47.7zm-3.54-.01v2.16c0 .46-.14.68-.41.68-.16 0-.31-.07-.47-.22v-3.09c.16-.15.31-.22.47-.22.27 0 .4.23.4.69zm-.5-5.68c-.05-.15-.08-.4-.08-.76v-4.05h.94v3.77a2 2 0 0 0 .02.36c.02.14.1.22.22.22.19 0 .39-.15.6-.44v-3.91h.95v5.12h-.95v-.56c-.38.43-.74.63-1.09.63-.3 0-.51-.12-.6-.38zm-6.64-4.65l-.67-1.91h1.1l.75 2.7.72-2.7h1.06l-1.26 4.09v2.78h-1.06v-2.78c-.09-.5-.3-1.22-.64-2.18zm3.27 4.51c-.2-.26-.3-.66-.3-1.21v-1.79c0-.55.1-.95.3-1.21a1.3 1.3 0 0 1 1.1-.52c.48 0 .85.17 1.11.52.2.26.3.66.3 1.21v1.79c0 .55-.1.95-.3 1.21a1.3 1.3 0 0 1-1.1.52 1.3 1.3 0 0 1-1.11-.52zm.65-1.03c0 .47.15.71.45.71.31 0 .46-.24.46-.71v-2.16c0-.47-.15-.71-.46-.71-.3 0-.45.24-.45.71z"/></defs><g><g transform="translate(-800 -3240)"><use fill="#fc0d1c" xlink:href="#5yiia"/></g></g></svg>