<?xml version="1.0" encoding="utf-8"?><!DOCTYPE svg PUBLIC "-//W3C//DTD SVG 1.1//EN" "http://www.w3.org/Graphics/SVG/1.1/DTD/svg11.dtd"><svg width="99" height="84" viewBox="0 0 99 84" xmlns="http://www.w3.org/2000/svg" xmlns:xlink="http://www.w3.org/1999/xlink"><view id="ad-globe" viewBox="0 0 65 65"/><svg width="65" height="65" viewBox="0 0 65 65" xmlns="http://www.w3.org/2000/svg"><defs><path id="aa" d="M281.56 1958a32.5 32.5 0 1 1 0 65 32.5 32.5 0 0 1-.05-65h.05zm-21.64 12.03h7.38a46.57 46.57 0 0 1 4.39-7.61 29.41 29.41 0 0 0-11.78 7.61zm-2.33 2.76a29.62 29.62 0 0 0-5.79 16.33h11.05a48.68 48.68 0 0 1 3.27-16.33zm8.59 35.42a48.5 48.5 0 0 1-3.33-16.33H251.8a29.62 29.62 0 0 0 5.79 16.33zm-6.26 2.76a29.6 29.6 0 0 0 11.83 7.63 49.94 49.94 0 0 1-4.4-7.63zm20.2 9.24v-9.23h-9.7a46.61 46.61 0 0 0 5.62 8.76c1.35.25 2.71.4 4.08.47zm0-28.33h-14.5a46.07 46.07 0 0 0 3.53 16.33h10.97zm0-2.76v-16.33h-11a46.28 46.28 0 0 0-3.5 16.33zm.01-28.32c-1.37.07-2.74.22-4.09.47a45.34 45.34 0 0 0-5.65 8.76h9.74zm16.7 11.99a48.97 48.97 0 0 1 3.33 16.33h11.04a29.47 29.47 0 0 0-5.78-16.33zm6.27-2.76a29.56 29.56 0 0 0-11.85-7.63 48.38 48.38 0 0 1 4.4 7.63zm-20.21-9.23v9.23h9.7a47.06 47.06 0 0 0-5.63-8.76 32.8 32.8 0 0 0-4.07-.47zm0 28.32h14.5a46.2 46.2 0 0 0-3.54-16.33h-10.96zm0 2.76v16.33h10.99a46.49 46.49 0 0 0 3.51-16.33zm-.02 28.32c1.37-.07 2.74-.22 4.1-.47a45.38 45.38 0 0 0 5.65-8.76h-9.75zm8.38-1.6a29.61 29.61 0 0 0 11.86-7.63h-7.48a49.23 49.23 0 0 1-4.38 7.63zm14.18-10.39a29.68 29.68 0 0 0 5.79-16.33h-11.08a51.12 51.12 0 0 1-3.34 16.33z"/></defs><use fill="#6fa3d4" xlink:href="#aa" transform="translate(-249 -1958)"/></svg><view id="arrow" viewBox="91 47 7 10"/><svg width="7" height="10" viewBox="0 0 7 10" x="91" y="47" xmlns="http://www.w3.org/2000/svg"><defs><path id="ba" d="M143.02 1712.34l-4.42 4.25c-.2.18-.51.18-.7 0a.47.47 0 0 1 0-.68l4.06-3.91-4.07-3.91a.47.47 0 0 1 0-.68.5.5 0 0 1 .7 0l4.43 4.25c.19.18.19.49 0 .68z"/></defs><use fill="#6fa3d4" xlink:href="#ba" transform="translate(-137 -1707)"/></svg><view id="currency" viewBox="75 47 16 16"/><svg width="16" height="16" viewBox="0 0 16 16" x="75" y="47" xmlns="http://www.w3.org/2000/svg"><defs><path id="ca" d="M1184 61a8 8 0 0 1-16 0 8 8 0 0 1 16 0zm-1.05 0a6.96 6.96 0 0 0-13.89 0 6.95 6.95 0 0 0 13.89 0zm-6.42-.47a2.57 2.57 0 0 1 0 5.02v.84a.53.53 0 0 1-1.06 0v-.84a2.57 2.57 0 0 1-1.61-1.1.52.52 0 0 1 .15-.73c.24-.16.57-.1.73.15.18.28.44.48.73.59v-2.99a2.57 2.57 0 0 1 0-5.03v-.83a.53.53 0 0 1 1.06 0v.84c.65.13 1.24.52 1.61 1.1.16.24.1.57-.15.73a.52.52 0 0 1-.72-.15 1.6 1.6 0 0 0-.74-.6zm-1.06-.15v-2.84c-.57.21-.99.77-.99 1.42 0 .65.42 1.2.99 1.42zm2.05 2.66c0-.65-.42-1.2-.99-1.42v2.84c.57-.22.99-.77.99-1.42z"/></defs><use fill="#acacac" xlink:href="#ca" transform="translate(-1168 -53)"/></svg><view id="facebook" viewBox="65 47 10 18"/><svg width="10" height="18" viewBox="0 0 10 18" x="65" y="47" xmlns="http://www.w3.org/2000/svg"><defs><path id="da" d="M764.35 3246.45v-1.48c0-.23 0-.4.03-.52.02-.12.07-.24.14-.36.08-.12.2-.2.37-.24.16-.05.38-.07.66-.07h1.51v-2.96h-2.41c-1.4 0-2.4.32-3.02.97-.61.65-.92 1.61-.92 2.87v1.79h-1.8v2.95h1.8v8.59h3.64v-8.59h2.42l.32-2.95z"/></defs><use fill="#4468b0" xlink:href="#da" transform="translate(-758 -3240)"/></svg><view id="globe" viewBox="17 65 16 16"/><svg width="16" height="16" viewBox="0 0 16 16" x="17" y="65" xmlns="http://www.w3.org/2000/svg"><defs><path id="ea" d="M1190.66 12.34A7.96 7.96 0 0 1 1193 18a7.96 7.96 0 0 1-8 8 7.96 7.96 0 0 1-7.99-8 7.96 7.96 0 0 1 7.99-8c2.14 0 4.15.82 5.66 2.34zm-.71 10.61a6.92 6.92 0 0 0 1.91-3.55c-.21.31-.41.43-.53-.27-.13-1.13-1.17-.4-1.82-.8-.69.46-2.24-.91-1.97.63.4.7 2.18-.93 1.3.54-.57 1.03-2.08 3.3-1.88 4.48.02 1.71-1.75.36-2.36-.21-.42-1.14-.14-3.14-1.22-3.7-1.17-.05-2.17-.15-2.63-1.46-.27-.94.29-2.33 1.3-2.54 1.46-.93 1.99 1.08 3.36 1.11.43-.44 1.59-.59 1.69-1.09-.9-.16 1.14-.76-.09-1.1-.68.08-1.12.7-.75 1.24-1.32.3-1.36-1.91-2.63-1.21-.03 1.1-2.06.36-.7.13.47-.2-.76-.8-.1-.69.33-.02 1.43-.4 1.13-.66.61-.38 1.13.91 1.73-.03.43-.73-.18-.86-.73-.5-.3-.33.54-1.08 1.29-1.4.25-.1.48-.16.67-.14.37.43 1.07.5 1.1-.06a6.94 6.94 0 0 0-7.19.7c.32.15.5.34.19.57-.24.72-1.22 1.69-2.08 1.55a6.94 6.94 0 0 0-.86 2.51c.72.24.88.71.73.87-.37.32-.59.78-.71 1.27a6.92 6.92 0 0 0 1.96 3.81 6.95 6.95 0 0 0 9.89 0z"/></defs><use fill="#acacac" xlink:href="#ea" transform="translate(-1177 -10)"/></svg><view id="icon" viewBox="65 0 34 47"/><svg width="34" height="47" viewBox="0 0 34 47" x="65" xmlns="http://www.w3.org/2000/svg"><path fill="none" stroke="#ED3237" stroke-width="2" stroke-miterlimit="10" d="M14 18h6v11h-6zM22 1h4M10 1h3M1 47V2.125M33 0v47M1 0v3.165C1 4.731 2.015 6 3.268 6h3.465C7.985 6 9 4.731 9 3.165V0"/><path fill="#ED3237" d="M1 13h31v1H1zM1 33h33v1H1zM14 23h7v1h-7zM4 0h2v2H4z"/><path fill="none" stroke="#ED3237" stroke-width="2" stroke-miterlimit="10" d="M13 0v3.165C13 4.731 14.015 6 15.268 6h3.465C19.985 6 21 4.731 21 3.165V0"/><path fill="#ED3237" d="M16 0h2v2h-2z"/><path fill="none" stroke="#ED3237" stroke-width="2" stroke-miterlimit="10" d="M25 0v3.165C25 4.731 26.015 6 27.268 6h3.465C31.985 6 33 4.731 33 3.165V0"/><path fill="#ED3237" d="M28 0h2v2h-2z"/><path fill="none" stroke="#ED3237" stroke-width="2" stroke-miterlimit="10" d="M22 46h4M10 46h3M1 47v-3.165C1 42.269 2.015 41 3.268 41h3.465C7.985 41 9 42.269 9 43.835V47"/><path fill="#ED3237" d="M4 45h2v2H4z"/><path fill="none" stroke="#ED3237" stroke-width="2" stroke-miterlimit="10" d="M13 47v-3.165C13 42.269 14.015 41 15.268 41h3.465C19.985 41 21 42.269 21 43.835V47"/><path fill="#ED3237" d="M16 45h2v2h-2z"/><path fill="none" stroke="#ED3237" stroke-width="2" stroke-miterlimit="10" d="M25 47v-3.165C25 42.269 26.015 41 27.268 41h3.465C31.985 41 33 42.269 33 43.835V47"/><path fill="#ED3237" d="M28 45h2v2h-2z"/></svg><view id="search" viewBox="33 65 13 14"/><svg width="13" height="14" viewBox="0 0 13 14" x="33" y="65" xmlns="http://www.w3.org/2000/svg"><defs><path id="ga" d="M1133.78 23.8a.7.7 0 0 1-1-.03l-3.23-3.49a5.25 5.25 0 0 1-3.12 1.02 5.55 5.55 0 0 1-5.43-5.65 5.55 5.55 0 0 1 5.43-5.65c3 0 5.44 2.54 5.44 5.65a5.7 5.7 0 0 1-1.28 3.63l3.21 3.47c.27.3.26.76-.02 1.04zm-11.36-8.15a4.1 4.1 0 0 0 4.01 4.18 4.1 4.1 0 0 0 4.02-4.18 4.1 4.1 0 0 0-4.02-4.18 4.1 4.1 0 0 0-4.01 4.18z"/></defs><use fill="#9d9d9d" xlink:href="#ga" transform="translate(-1121 -10)"/></svg><view id="youtube" viewBox="0 65 17 19"/><svg width="17" height="19" viewBox="0 0 17 19" y="65" xmlns="http://www.w3.org/2000/svg"><defs><path id="ha" d="M816.18 3253.53c0 1.18 0 2.44-.27 3.59-.2.81-.87 1.4-1.68 1.49-1.93.21-3.88.21-5.82.21-1.94 0-3.9 0-5.82-.21a1.94 1.94 0 0 1-1.68-1.49c-.27-1.15-.27-2.41-.27-3.59 0-1.19 0-2.45.27-3.6.2-.81.87-1.4 1.68-1.49 1.93-.21 3.88-.21 5.82-.21 1.94 0 3.9 0 5.82.21.81.09 1.49.68 1.68 1.49.27 1.15.27 2.41.27 3.6zm-11.1-3.66h-3.28v.95h1.1v5.85h1.05v-5.85h1.12zm2.83 6.8v-5.07h-.94v3.87c-.21.29-.4.43-.6.43-.12 0-.2-.07-.22-.21v-4.09h-.94v4.01c0 .36.03.6.08.75.1.26.3.38.6.38.35 0 .7-.2 1.08-.62v.55zm3.57-3.54c0-.48-.04-.82-.1-1.02-.12-.38-.38-.57-.75-.57-.34 0-.67.18-.97.55v-2.22h-.94v6.8h.94v-.49c.31.38.64.56.97.56.37 0 .63-.19.75-.57.06-.22.1-.55.1-1.02zm3.54 1.17v-1.05c0-.54-.1-.93-.29-1.19a1.3 1.3 0 0 0-1.1-.52c-.49 0-.86.17-1.13.52-.2.26-.3.65-.3 1.19v1.78c0 .54.11.94.3 1.19.28.35.65.52 1.15.52a1.3 1.3 0 0 0 1.35-1.1l.02-.59v-.14h-.96c0 .37 0 .58-.02.63-.05.24-.19.36-.42.36-.32 0-.48-.23-.48-.7v-.9zm-.94-1.23v.47h-.94v-.47c0-.47.16-.7.47-.7.32 0 .47.23.47.7zm-3.54-.01v2.16c0 .46-.14.68-.41.68-.16 0-.31-.07-.47-.22v-3.09c.16-.15.31-.22.47-.22.27 0 .4.23.4.69zm-.5-5.68c-.05-.15-.08-.4-.08-.76v-4.05h.94v3.77a2 2 0 0 0 .02.36c.02.14.1.22.22.22.19 0 .39-.15.6-.44v-3.91h.95v5.12h-.95v-.56c-.38.43-.74.63-1.09.63-.3 0-.51-.12-.6-.38zm-6.64-4.65l-.67-1.91h1.1l.75 2.7.72-2.7h1.06l-1.26 4.09v2.78h-1.06v-2.78c-.09-.5-.3-1.22-.64-2.18zm3.27 4.51c-.2-.26-.3-.66-.3-1.21v-1.79c0-.55.1-.95.3-1.21a1.3 1.3 0 0 1 1.1-.52c.48 0 .85.17 1.11.52.2.26.3.66.3 1.21v1.79c0 .55-.1.95-.3 1.21a1.3 1.3 0 0 1-1.1.52 1.3 1.3 0 0 1-1.11-.52zm.65-1.03c0 .47.15.71.45.71.31 0 .46-.24.46-.71v-2.16c0-.47-.15-.71-.46-.71-.3 0-.45.24-.45.71z"/></defs><use fill="#fc0d1c" xlink:href="#ha" transform="translate(-800 -3240)"/></svg></svg>